# xmcd
#
# Track frame offsets: 
#        300
#        11039
#        34228
#        64364
#        78727
#        100143
#        118708
#        138242
#        155370
#        179378
#        195750
#        215846
#        228946
#        246193
#        265251
#        284130
#
# Disc length: 4001 seconds
#
# Revision: 2
# Processed by: cddbd v1.5.2PL0 Copyright (c) Steve Scherf et al.
# Submitted via: ExactAudioCopyFreeDBPlugin 1.0
#
DISCID=ec0f9d10
DTITLE=Various Artist - Viva La Salsa - salsa y latino classics cd2
DYEAR=2004
DGENRE=Salsa
TTITLE0=Rosemary Clooney - Sway
TTITLE1=Pucho and His Latin Soul Brothers - Ritmo Nueva York
TTITLE2=Osvaldo Chagun - Mi Vicio
TTITLE3=José Aguilera - Vaccillon
TTITLE4=Luis Enrique - La Manana
TTITLE5=Sonoc De Las Tunas - Moliendo Café#
TTITLE6=Grupo Kaos - Mi Nena
TTITLE7=Juanes - Podemos Hacernos Dano
TTITLE8=Alex D'Castro - En Defensa Probia
TTITLE9=Manolo Tena - Sueno Latino
TTITLE10=Victor Manuelle - Me Dara El Consentimiento
TTITLE11=Los Fabulosos Cadillacs - La Vida
TTITLE12=Havanna Mambo - Malanina
TTITLE13=Soraya - La Misma Historia
TTITLE14=Rosario - La Estrella
TTITLE15=Kid Creole And The Coconuts - Lambada
EXTD=YEAR: 2004
EXTT0=
EXTT1=
EXTT2=
EXTT3=
EXTT4=
EXTT5=
EXTT6=
EXTT7=
EXTT8=
EXTT9=
EXTT10=
EXTT11=
EXTT12=
EXTT13=
EXTT14=
EXTT15=
PLAYORDER=
